<?xml version="1.0" encoding="UTF-8" standalone="no"?>
<!-- Created with Inkscape (http://www.inkscape.org/) -->

<svg
   version="1.1"
   id="svg1"
   width="256"
   height="256"
   viewBox="0 0 256 256"
   sodipodi:docname="xitomatl.svg"
   inkscape:version="1.4 (e7c3feb100, 2024-10-09)"
   xmlns:inkscape="http://www.inkscape.org/namespaces/inkscape"
   xmlns:sodipodi="http://sodipodi.sourceforge.net/DTD/sodipodi-0.dtd"
   xmlns="http://www.w3.org/2000/svg"
   xmlns:svg="http://www.w3.org/2000/svg">
  <defs
     id="defs1">
    <inkscape:path-effect
       effect="fillet_chamfer"
       id="path-effect5"
       is_visible="true"
       lpeversion="1"
       nodesatellites_param="F,0,1,1,0,31.658983,0,1 @ F,0,0,1,0,31.658983,0,1 @ F,0,1,1,0,31.658983,0,1 @ F,0,1,1,0,31.658983,0,1"
       radius="0"
       unit="px"
       method="auto"
       mode="F"
       chamfer_steps="1"
       flexible="false"
       use_knot_distance="true"
       apply_no_radius="true"
       apply_with_radius="true"
       only_selected="false"
       hide_knots="false" />
    <inkscape:path-effect
       effect="fillet_chamfer"
       id="path-effect3"
       is_visible="true"
       lpeversion="1"
       nodesatellites_param="F,0,0,1,0,0,0,1 @ F,0,0,1,0,0,0,1 @ F,0,0,1,0,0,0,1 @ F,0,0,1,0,0,0,1"
       radius="0"
       unit="px"
       method="auto"
       mode="F"
       chamfer_steps="1"
       flexible="false"
       use_knot_distance="true"
       apply_no_radius="true"
       apply_with_radius="true"
       only_selected="false"
       hide_knots="false" />
    <inkscape:path-effect
       effect="fillet_chamfer"
       id="path-effect2"
       is_visible="true"
       lpeversion="1"
       nodesatellites_param="F,0,0,1,0,0,0,1 @ F,0,0,1,0,0,0,1 @ F,0,0,1,0,0,0,1 @ F,0,0,1,0,0,0,1"
       radius="0"
       unit="px"
       method="auto"
       mode="F"
       chamfer_steps="1"
       flexible="false"
       use_knot_distance="true"
       apply_no_radius="true"
       apply_with_radius="true"
       only_selected="false"
       hide_knots="false" />
    <inkscape:path-effect
       effect="fillet_chamfer"
       id="path-effect1"
       is_visible="true"
       lpeversion="1"
       nodesatellites_param="F,0,0,1,0,0,0,1 @ F,0,0,1,0,0,0,1 @ F,0,0,1,0,0,0,1 @ F,0,0,1,0,0,0,1"
       radius="0"
       unit="px"
       method="auto"
       mode="F"
       chamfer_steps="1"
       flexible="false"
       use_knot_distance="true"
       apply_no_radius="true"
       apply_with_radius="true"
       only_selected="false"
       hide_knots="false" />
  </defs>
  <sodipodi:namedview
     id="namedview1"
     pagecolor="#ffffff"
     bordercolor="#000000"
     borderopacity="0.25"
     inkscape:showpageshadow="2"
     inkscape:pageopacity="0.0"
     inkscape:pagecheckerboard="0"
     inkscape:deskcolor="#d1d1d1"
     inkscape:zoom="3.1523438"
     inkscape:cx="149.25403"
     inkscape:cy="128.95167"
     inkscape:window-width="1920"
     inkscape:window-height="1018"
     inkscape:window-x="0"
     inkscape:window-y="0"
     inkscape:window-maximized="1"
     inkscape:current-layer="g1" />
  <g
     inkscape:groupmode="layer"
     inkscape:label="Image"
     id="g1">
    <path
       id="rect1"
       style="fill:#007ba7;stroke:#ffffff;stroke-width:20;stroke-linejoin:round;stroke-opacity:1"
       d="M 64.808923,33.14994 H 191.19108 a 31.658983,31.658983 45 0 1 31.65898,31.658983 V 191.19108 a 31.658983,31.658983 135 0 1 -31.65898,31.65898 H 64.808923 A 31.658983,31.658983 45 0 1 33.14994,191.19108 V 64.808923 A 31.658983,31.658983 135 0 1 64.808923,33.14994 Z"
       inkscape:path-effect="#path-effect5"
       inkscape:original-d="M 33.14994,33.14994 H 222.85006 V 222.85006 H 33.14994 Z"
       transform="matrix(1.1210202,0,0,1.1210202,-15.490581,-15.490581)" />
    <path
       id="text5"
       style="font-style:normal;font-variant:normal;font-weight:bold;font-stretch:normal;font-size:133.333px;font-family:'Noto Sans Mono';-inkscape-font-specification:'Noto Sans Mono Bold';text-align:start;writing-mode:lr-tb;direction:ltr;text-anchor:start;fill:#000000;fill-opacity:1;stroke:none;stroke-width:10;stroke-linejoin:round;stroke-dasharray:none;stroke-opacity:1"
       sodipodi:type="inkscape:offset"
       inkscape:radius="10.34778"
       inkscape:original="M 90 79.066406 C 84.933346 79.066406 80.534105 79.599352 76.800781 80.666016 C 73.156346 81.643791 69.733195 83.15478 66.533203 85.199219 C 63.4221 87.154769 60.132673 89.643801 56.666016 92.666016 L 67.599609 105.59961 C 71.421822 102.31073 74.978698 99.867574 78.267578 98.267578 C 81.556459 96.667582 84.977657 95.867188 88.533203 95.867188 C 92.177638 95.867188 95.111768 96.933078 97.333984 99.066406 C 99.556201 101.11085 100.66602 104.04498 100.66602 107.86719 C 100.66602 111.42273 99.733849 114.84393 97.867188 118.13281 C 96.000526 121.3328 93.511494 124.57831 90.400391 127.86719 C 87.289287 131.15607 83.866136 134.66707 80.132812 138.40039 L 56.933594 161.59961 L 56.933594 175.59961 L 123.33398 175.59961 L 123.33398 159.06641 L 81.734375 159.06641 L 81.734375 157.73242 L 94 146.93359 C 98.799988 142.66694 103.19923 138.44535 107.19922 134.26758 C 111.2881 130.08981 114.57752 125.68862 117.06641 121.06641 C 119.55529 116.35531 120.80078 111.15567 120.80078 105.4668 C 120.80078 100.40014 119.55529 95.911101 117.06641 92 C 114.66641 88.00001 111.15541 84.844308 106.5332 82.533203 C 101.99988 80.222098 96.488872 79.066406 90 79.066406 z M 144.80078 80.400391 L 141.06641 128.93359 L 149.06641 132.93359 C 150.84418 132.22248 153.02184 131.68954 155.59961 131.33398 C 158.17738 130.88954 160.71034 130.66602 163.19922 130.66602 C 165.95477 130.66602 168.5336 131.15504 170.93359 132.13281 C 173.33359 133.11059 175.28967 134.71138 176.80078 136.93359 C 178.31189 139.15581 179.06641 142.17779 179.06641 146 C 179.06641 150.79999 177.73307 154.35491 175.06641 156.66602 C 172.48864 158.97712 168.57842 160.13281 163.33398 160.13281 C 159.68955 160.13281 155.77738 159.68967 151.59961 158.80078 C 147.42184 157.82301 143.3779 156.35594 139.4668 154.40039 L 139.4668 171.73242 C 142.75568 173.42131 146.48825 174.71072 150.66602 175.59961 C 154.93267 176.4885 159.06642 176.93359 163.06641 176.93359 C 169.91083 176.93359 176.04459 175.73398 181.4668 173.33398 C 186.97789 170.93399 191.33321 167.33319 194.5332 162.5332 C 197.73319 157.73322 199.33398 151.77711 199.33398 144.66602 C 199.33398 138.26603 198.08849 132.88875 195.59961 128.5332 C 193.11073 124.08877 189.68953 120.75542 185.33398 118.5332 C 181.06733 116.2221 176.22299 115.06641 170.80078 115.06641 C 169.55634 115.06641 168.0434 115.15621 166.26562 115.33398 C 164.57674 115.42287 162.71045 115.68837 160.66602 116.13281 L 162.13281 96.933594 L 194.13281 96.933594 L 194.13281 80.400391 L 144.80078 80.400391 z "
       d="m 90,68.71875 c -5.764285,0 -11.064144,0.590615 -15.966797,1.982422 -4.614484,1.247632 -9.006502,3.187421 -13.046875,5.765625 -3.664513,2.307063 -7.345875,5.10722 -11.121094,8.398437 A 10.348815,10.348815 0 0 0 48.763672,99.345703 L 59.697266,112.2793 a 10.348815,10.348815 0 0 0 14.652343,1.16406 c 3.336878,-2.87127 6.243572,-4.79998 8.445313,-5.87109 1.971148,-0.95894 3.735671,-1.35743 5.738281,-1.35743 1.626821,0 1.45302,0.14193 1.634766,0.31641 a 10.348815,10.348815 0 0 0 0.160156,0.15039 c -0.144879,-0.13329 -0.0098,-0.6336 -0.0098,1.18555 0,1.73333 -0.37673,3.24187 -1.433593,5.11719 -1.382225,2.35595 -3.356475,4.97483 -6.001954,7.77148 -3.033561,3.20691 -6.390476,6.6522 -10.066406,10.32812 L 49.617187,154.2832 a 10.348815,10.348815 0 0 0 -3.03125,7.31641 v 14 a 10.348815,10.348815 0 0 0 10.347657,10.34766 h 66.400386 a 10.348815,10.348815 0 0 0 9.04493,-7.20313 10.348815,10.348815 0 0 0 2.36132,2.19336 c 4.21515,2.16454 8.8285,3.7315 13.77149,4.7832 a 10.348815,10.348815 0 0 0 0.043,0.01 c 4.8979,1.0204 9.74411,1.55078 14.51172,1.55078 8.03791,0 15.66101,-1.42844 22.54687,-4.46875 7.14812,-3.11642 13.25364,-8.12557 17.5293,-14.53906 4.50801,-6.76201 6.53906,-14.9434 6.53906,-23.60742 0,-7.72839 -1.52274,-14.99032 -5.08008,-21.23243 -3.36807,-5.99455 -8.39703,-10.93424 -14.4707,-14.05859 -1.50337,-0.80668 -3.06024,-1.50034 -4.6582,-2.09375 h 8.66015 A 10.348815,10.348815 0 0 0 204.48047,96.933594 V 80.400391 A 10.348815,10.348815 0 0 0 194.13281,70.052734 h -49.33203 a 10.348815,10.348815 0 0 0 -10.31641,9.554688 L 130.75,128.14062 a 10.348815,10.348815 0 0 0 5.68945,10.04883 l 8,4 a 10.348815,10.348815 0 0 0 8.47071,0.35157 c 0.72757,-0.29103 2.13078,-0.68493 4.10351,-0.95704 a 10.348815,10.348815 0 0 0 0.34375,-0.0527 c 2.03176,-0.3503 3.97246,-0.51758 5.8418,-0.51758 1.53129,0 2.71226,0.24577 3.83008,0.70117 0.56476,0.23009 0.73928,0.33776 1.21484,1.03711 -0.0411,-0.0605 0.47461,0.78764 0.47461,3.24805 0,2.88372 -0.44165,2.85607 -0.42969,2.8457 a 10.348815,10.348815 0 0 0 -0.13086,0.11524 c 0.0182,-0.0163 -1.09997,0.82422 -4.82422,0.82422 -2.77323,0 -5.93644,-0.34329 -9.46289,-1.08594 -3.35312,-0.79189 -6.59418,-1.96311 -9.77734,-3.55469 a 10.348815,10.348815 0 0 0 -13.96289,6.39063 10.348815,10.348815 0 0 0 -6.79688,-2.81641 h -16.25976 c 2.5365,-2.41434 5.23965,-4.83616 7.54492,-7.24219 4.67717,-4.78354 8.57118,-9.95587 11.55859,-15.5039 a 10.348815,10.348815 0 0 0 0.0391,-0.0723 c 3.29181,-6.23094 4.93164,-13.2344 4.93164,-20.43359 0,-6.71645 -1.7609,-13.309175 -5.28711,-18.902347 C 122.4139,80.873702 117.2589,76.33872 111.20117,73.300781 104.8955,70.093471 97.705146,68.71875 90,68.71875 Z M 165.72266,105 c -0.0364,0.002 -0.075,0.0136 -0.11133,0.0156 -0.13385,0.0128 -0.23935,0.008 -0.375,0.0215 z" />
    <text
       xml:space="preserve"
       style="font-style:normal;font-variant:normal;font-weight:bold;font-stretch:normal;font-size:133.333px;font-family:'Noto Sans Mono';-inkscape-font-specification:'Noto Sans Mono Bold';text-align:start;writing-mode:lr-tb;direction:ltr;text-anchor:start;fill:#ffffff;fill-opacity:1;stroke:none;stroke-width:10;stroke-linejoin:round;stroke-dasharray:none;stroke-opacity:1"
       x="49.333508"
       y="175.59988"
       id="text6"><tspan
         sodipodi:role="line"
         id="tspan6"
         x="49.333508"
         y="175.59988">25</tspan></text>
  </g>
</svg>
